<?xml version="1.0" encoding="UTF-8"?><svg id="uuid-f97a37b5-04ce-4338-9b9b-0e8968a7a65a" xmlns="http://www.w3.org/2000/svg" xmlns:xlink="http://www.w3.org/1999/xlink" viewBox="0 0 987.25 220.99"><defs><style>.uuid-1c2b1d43-c272-483b-9f17-87f41397c139,.uuid-3d4f5e33-d706-4f02-ad6c-d5e649e3b906{isolation:isolate;}.uuid-237cb7ea-d2a1-4a8b-896d-0bf54fd54541,.uuid-d3e64c15-ef5f-4a0b-8ac9-4ece5dd105f8,.uuid-3d4f5e33-d706-4f02-ad6c-d5e649e3b906{stroke-width:0px;}.uuid-d3e64c15-ef5f-4a0b-8ac9-4ece5dd105f8{fill:url(#uuid-8246af91-ecf0-4550-9097-b0dfcd6fb6b2);}.uuid-3d4f5e33-d706-4f02-ad6c-d5e649e3b906{fill:url(#uuid-4366762a-769e-4ecf-bf0a-24779485a961);}</style><linearGradient id="uuid-8246af91-ecf0-4550-9097-b0dfcd6fb6b2" x1="223.27" y1="216.39" x2="92.58" y2="-9.97" gradientUnits="userSpaceOnUse"><stop offset="0" stop-color="#ba214c"/><stop offset="1" stop-color="#dd7e3a"/></linearGradient><linearGradient id="uuid-4366762a-769e-4ecf-bf0a-24779485a961" x1="88.95" y1="116.49" x2="31.31" y2="16.65" gradientUnits="userSpaceOnUse"><stop offset="0" stop-color="#c66244"/><stop offset="1" stop-color="#dd7e3a"/></linearGradient></defs><path class="uuid-d3e64c15-ef5f-4a0b-8ac9-4ece5dd105f8" d="M293.98,89.69c-4.64-24.18-16.68-44.4-35.02-60.74C237.94,10.21,213.2.3,185.06,0h-109.77c-.02,14.62,5.17,30.39,14.46,40.24,9.94,10.54,24.51,14.66,40.14,14.75,21.62.12,43.28.26,51.53.39,5.48.08,11.08.44,16.4,1.66,34.7,7.96,52.93,45.55,37.28,77.48-9.49,19.35-25.6,30.05-47.2,30.9-18.47.72-36.98.18-55.47.18h-2.07c0-17.06.01-34.27.02-51.45h0c0-.33,0-.64,0-.96h0v-33.43c-12.21.66-30.67-.8-44.68,17.84-6.9,9.18-10.39,23.63-10.39,35.1l-.1,1.02c-.11,32.49,0,86.06,0,87.24,1.15,0,75.51.04,111.94-.01,17.95-.03,34.85-4.45,50.6-12.98,42.98-23.28,65.43-70.32,56.23-118.29Z"/><path class="uuid-3d4f5e33-d706-4f02-ad6c-d5e649e3b906" d="M60.13,133.13c9.37-47.78,16.96-56.19,60.13-66.56C77.08,56.2,69.49,47.8,60.13.01,50.76,47.8,43.17,56.2,0,66.57c43.17,10.37,50.76,18.77,60.13,66.56Z"/><g class="uuid-1c2b1d43-c272-483b-9f17-87f41397c139"><path class="uuid-237cb7ea-d2a1-4a8b-896d-0bf54fd54541" d="M462.1,88.05c0,30.89-24.32,48.92-62.34,48.92h-57.03V39.13h57.03c38.02,0,62.34,17.89,62.34,48.92ZM427.3,88.05c0-14.82-11.6-22.92-30.33-22.92h-20.13v45.85h20.13c18.73,0,30.33-8.11,30.33-22.92Z"/><path class="uuid-237cb7ea-d2a1-4a8b-896d-0bf54fd54541" d="M553.24,136.98l-23.76-28.79h-22.92v28.79h-33.83V39.13h69.47c26.14,0,46.83,11.18,46.83,34.53,0,16.07-9.78,26.42-24.46,31.31l27.54,32.01h-38.86ZM539.4,85.4c8.81,0,15.1-2.52,15.1-10.9s-6.29-10.9-15.1-10.9h-32.85v21.8h32.85Z"/><path class="uuid-237cb7ea-d2a1-4a8b-896d-0bf54fd54541" d="M708.11,112.38v24.6h-107.49V39.13h105.95v24.6h-72.55v12.44h59.13v22.64h-59.13v13.56h74.08Z"/><path class="uuid-237cb7ea-d2a1-4a8b-896d-0bf54fd54541" d="M800.08,120.06h-48.92l-7.97,16.91h-35.5l49.62-97.85h37.04l49.62,97.85h-35.92l-7.97-16.91ZM789.74,97.98l-14.12-30.19-14.12,30.19h28.24Z"/><path class="uuid-237cb7ea-d2a1-4a8b-896d-0bf54fd54541" d="M987.25,39.13v97.85h-33.69v-57.45l-35.5,43.75h-1.68l-35.36-43.75v57.45h-32.85V39.13h37.18l32.71,42.63,32.99-42.63h36.2Z"/></g><g class="uuid-1c2b1d43-c272-483b-9f17-87f41397c139"><path class="uuid-237cb7ea-d2a1-4a8b-896d-0bf54fd54541" d="M378.34,181.74l5.95,2.95c-3.54,5.47-10.4,9.38-19.88,9.38-14.04,0-22.88-7.56-22.88-19.88s8.84-19.88,23.15-19.88c9.22,0,16.07,3.97,19.56,9.32l-6,3c-2.79-4.61-7.56-6.64-13.66-6.64-9.91,0-16.5,4.82-16.5,14.2s6.59,14.2,16.5,14.2c6.11,0,10.93-1.98,13.77-6.64Z"/><path class="uuid-237cb7ea-d2a1-4a8b-896d-0bf54fd54541" d="M410.44,192.94v-37.51h6.43v37.51h-6.43Z"/><path class="uuid-237cb7ea-d2a1-4a8b-896d-0bf54fd54541" d="M482.67,161.06h-17.09v31.88h-6.43v-31.88h-16.99v-5.63h40.51v5.63Z"/><path class="uuid-237cb7ea-d2a1-4a8b-896d-0bf54fd54541" d="M510.38,155.43l14.31,19.02,14.2-19.02h7.39l-18.43,24.54v12.97h-6.43v-12.97l-18.49-24.54h7.45Z"/><path class="uuid-237cb7ea-d2a1-4a8b-896d-0bf54fd54541" d="M638.12,181.74l5.95,2.95c-3.54,5.47-10.39,9.38-19.88,9.38-14.04,0-22.88-7.56-22.88-19.88s8.84-19.88,23.15-19.88c9.22,0,16.07,3.97,19.56,9.32l-6,3c-2.79-4.61-7.55-6.64-13.66-6.64-9.91,0-16.5,4.82-16.5,14.2s6.59,14.2,16.5,14.2c6.11,0,10.93-1.98,13.77-6.64Z"/><path class="uuid-237cb7ea-d2a1-4a8b-896d-0bf54fd54541" d="M711.43,155.43v37.51h-6.43v-16.13h-28.34v16.13h-6.43v-37.51h6.43v15.59h28.34v-15.59h6.43Z"/><path class="uuid-237cb7ea-d2a1-4a8b-896d-0bf54fd54541" d="M781.41,155.43v19.83c0,11.09-7.13,18.81-20.41,18.81s-20.36-7.72-20.36-18.81v-19.83h6.43v19.4c0,8.41,4.98,13.5,13.93,13.5s13.99-5.09,13.99-13.5v-19.4h6.43Z"/><path class="uuid-237cb7ea-d2a1-4a8b-896d-0bf54fd54541" d="M844.48,192.94l-11.63-13.61h-15.81v13.61h-6.43v-37.51h25.5c8.73,0,15.16,4.18,15.16,11.95,0,6.48-4.5,10.45-11.04,11.63l12.16,13.93h-7.93ZM835.69,173.81c5.36,0,9-1.72,9-6.38s-3.64-6.38-9-6.38h-18.7v12.75h18.7Z"/><path class="uuid-237cb7ea-d2a1-4a8b-896d-0bf54fd54541" d="M912.8,181.74l5.95,2.95c-3.54,5.47-10.4,9.38-19.88,9.38-14.04,0-22.88-7.56-22.88-19.88s8.84-19.88,23.15-19.88c9.22,0,16.07,3.97,19.56,9.32l-6,3c-2.79-4.61-7.56-6.64-13.66-6.64-9.91,0-16.5,4.82-16.5,14.2s6.59,14.2,16.5,14.2c6.11,0,10.93-1.98,13.77-6.64Z"/><path class="uuid-237cb7ea-d2a1-4a8b-896d-0bf54fd54541" d="M986.11,155.43v37.51h-6.43v-16.13h-28.34v16.13h-6.43v-37.51h6.43v15.59h28.34v-15.59h6.43Z"/></g></svg>